<?xml version="1.0" encoding="utf-8"?>
<!-- Generator: Adobe Illustrator 24.0.3, SVG Export Plug-In . SVG Version: 6.00 Build 0)  -->
<svg version="1.1" id="Layer_1" xmlns="http://www.w3.org/2000/svg" xmlns:xlink="http://www.w3.org/1999/xlink" x="0px" y="0px"
	 viewBox="0 0 370 354" style="enable-background:new 0 0 370 354;" xml:space="preserve">
<style type="text/css">
	.st0{fill:#7FFFD4;}
</style>
<title>Artboard 1 copyiconos</title>
<path class="st0" d="M308.3,216.3c5.3-14.1,8.3-24.1,10-41.3c2.3-23.4-27.8-60.8-107.5-60.8c-44.4,0-49.1,2.3-49.1,2.3
	s-8-10-16.4-21c-4.1-5.4-8.6-10.9-14-11.7c-3.5-0.5,0.1,8.9-7,9.4c-25.7,1.7-80.8,7.2-77.2,42.1c4.6,44.4,88.9,25.7,91.1,84.1
	c0.6,15.7-9.4,32.7-9.4,32.7h21c0,0,10.1-10.1,16.6-18.9l12,16.6h18.1L184.6,222c25-3,75.2-0.3,75.2-0.3s18.7,18.7,14,30.4h21
	c1.4-3.9,2.7-7.4,4-10.8l6.1,8.4H323L308.3,216.3z M117.2,118.9c-2.6,0-4.7-2.1-4.7-4.7c0-2.6,2.1-4.7,4.7-4.7
	c2.6,0,4.7,2.1,4.7,4.7C121.9,116.8,119.8,118.9,117.2,118.9z"/>
</svg>
